<svg width="129" height="101" viewBox="0 0 129 101" fill="none" xmlns="http://www.w3.org/2000/svg">
<path d="M27.5994 90.3C27.5994 90.8667 27.4427 91.2933 27.1294 91.58C26.8227 91.86 26.3794 92 25.7994 92H25.3994C24.8194 92 24.3727 91.86 24.0594 91.58C23.7527 91.2933 23.5994 90.8667 23.5994 90.3V86.7C23.5994 86.1333 23.7527 85.71 24.0594 85.43C24.3727 85.1433 24.8194 85 25.3994 85H25.7994C26.3794 85 26.8227 85.1433 27.1294 85.43C27.4427 85.71 27.5994 86.1333 27.5994 86.7V90.3ZM26.7294 86.51C26.7294 86.3033 26.6527 86.1267 26.4994 85.98C26.3461 85.8333 26.1461 85.76 25.8994 85.76H25.2994C25.0527 85.76 24.8527 85.8333 24.6994 85.98C24.5461 86.1267 24.4694 86.3033 24.4694 86.51V90.49C24.4694 90.6967 24.5461 90.8733 24.6994 91.02C24.8527 91.1667 25.0527 91.24 25.2994 91.24H25.8994C26.1461 91.24 26.3461 91.1667 26.4994 91.02C26.6527 90.8733 26.7294 90.6967 26.7294 90.49V86.51ZM32.4498 88.12V88.85H30.2298V92H29.3598V85H32.6998V85.73H30.2298V88.12H32.4498ZM37.8502 88.12V88.85H35.6302V92H34.7602V85H38.1002V85.73H35.6302V88.12H37.8502Z" fill="#281C16"/>
<path d="M14.0296 55.25V49.79L12.6196 50.31V49.5L13.9296 49H14.8796V55.25H15.9696V56H12.7196V55.25H14.0296ZM21.48 54.3C21.48 54.8533 21.3267 55.2767 21.02 55.57C20.72 55.8567 20.3133 56 19.8 56H19.6C19.0867 56 18.6767 55.8567 18.37 55.57C18.07 55.2767 17.92 54.8533 17.92 54.3V50.7C17.92 50.14 18.07 49.7167 18.37 49.43C18.67 49.1433 19.08 49 19.6 49H19.8C20.32 49 20.73 49.1433 21.03 49.43C21.33 49.7167 21.48 50.14 21.48 50.7V54.3ZM20.63 50.51C20.63 50.3033 20.55 50.1267 20.39 49.98C20.2367 49.8267 20.04 49.75 19.8 49.75H19.6C19.36 49.75 19.16 49.8267 19 49.98C18.8467 50.1267 18.77 50.3033 18.77 50.51V53.22L20.63 50.51ZM18.77 54.49C18.77 54.6967 18.8467 54.8767 19 55.03C19.16 55.1767 19.36 55.25 19.6 55.25H19.8C20.04 55.25 20.2367 55.1767 20.39 55.03C20.55 54.8767 20.63 54.6967 20.63 54.49V51.79L18.77 54.49Z" fill="#281C16"/>
<path d="M110.8 54.42C110.8 54.9733 110.666 55.3767 110.4 55.63C110.133 55.8767 109.7 56 109.1 56H107.79V55.25H109.19C109.443 55.25 109.63 55.1933 109.75 55.08C109.87 54.96 109.93 54.7733 109.93 54.52V53.25C109.93 53.03 109.863 52.8567 109.73 52.73C109.596 52.5967 109.42 52.53 109.2 52.53H107.89V49H110.65V49.75H108.74V51.78H109.15C109.663 51.78 110.066 51.9067 110.36 52.16C110.653 52.4133 110.8 52.8067 110.8 53.34V54.42ZM116.48 54.3C116.48 54.8533 116.327 55.2767 116.02 55.57C115.72 55.8567 115.313 56 114.8 56H114.6C114.087 56 113.677 55.8567 113.37 55.57C113.07 55.2767 112.92 54.8533 112.92 54.3V50.7C112.92 50.14 113.07 49.7167 113.37 49.43C113.67 49.1433 114.08 49 114.6 49H114.8C115.32 49 115.73 49.1433 116.03 49.43C116.33 49.7167 116.48 50.14 116.48 50.7V54.3ZM115.63 50.51C115.63 50.3033 115.55 50.1267 115.39 49.98C115.237 49.8267 115.04 49.75 114.8 49.75H114.6C114.36 49.75 114.16 49.8267 114 49.98C113.847 50.1267 113.77 50.3033 113.77 50.51V53.22L115.63 50.51ZM113.77 54.49C113.77 54.6967 113.847 54.8767 114 55.03C114.16 55.1767 114.36 55.25 114.6 55.25H114.8C115.04 55.25 115.237 55.1767 115.39 55.03C115.55 54.8767 115.63 54.6967 115.63 54.49V51.79L113.77 54.49Z" fill="#281C16"/>
<path d="M97.0796 90.3C97.0796 90.8467 96.9296 91.2667 96.6296 91.56C96.3296 91.8533 95.9529 92 95.4996 92H95.1496C94.6963 92 94.3196 91.8533 94.0196 91.56C93.7196 91.2667 93.5696 90.8467 93.5696 90.3V86.7C93.5696 86.1333 93.7196 85.71 94.0196 85.43C94.3263 85.1433 94.7696 85 95.3496 85H96.5996V85.76H95.2496C95.0029 85.76 94.8029 85.8333 94.6496 85.98C94.4963 86.1267 94.4196 86.3033 94.4196 86.51V87.6H95.3996C95.9729 87.6 96.3963 87.7267 96.6696 87.98C96.9429 88.2333 97.0796 88.64 97.0796 89.2V90.3ZM94.4196 90.49C94.4196 90.7033 94.4896 90.8833 94.6296 91.03C94.7696 91.1767 94.9596 91.25 95.1996 91.25H95.4496C95.6896 91.25 95.8796 91.1767 96.0196 91.03C96.1596 90.8833 96.2296 90.7033 96.2296 90.49V89.01C96.2296 88.8033 96.1663 88.6433 96.0396 88.53C95.9196 88.41 95.7396 88.35 95.4996 88.35H94.4196V90.49ZM102.48 90.3C102.48 90.8533 102.327 91.2767 102.02 91.57C101.72 91.8567 101.313 92 100.8 92H100.6C100.087 92 99.6767 91.8567 99.37 91.57C99.07 91.2767 98.92 90.8533 98.92 90.3V86.7C98.92 86.14 99.07 85.7167 99.37 85.43C99.67 85.1433 100.08 85 100.6 85H100.8C101.32 85 101.73 85.1433 102.03 85.43C102.33 85.7167 102.48 86.14 102.48 86.7V90.3ZM101.63 86.51C101.63 86.3033 101.55 86.1267 101.39 85.98C101.237 85.8267 101.04 85.75 100.8 85.75H100.6C100.36 85.75 100.16 85.8267 100 85.98C99.8467 86.1267 99.77 86.3033 99.77 86.51V89.22L101.63 86.51ZM99.77 90.49C99.77 90.6967 99.8467 90.8767 100 91.03C100.16 91.1767 100.36 91.25 100.6 91.25H100.8C101.04 91.25 101.237 91.1767 101.39 91.03C101.55 90.8767 101.63 90.6967 101.63 90.49V87.79L99.77 90.49Z" fill="#281C16"/>
<path d="M28.2496 19.84C28.4629 19.5333 28.6063 19.3167 28.6796 19.19C28.7596 19.0567 28.8129 18.9233 28.8396 18.79C28.8663 18.6567 28.8796 18.4633 28.8796 18.21V17.51C28.8796 17.3033 28.8029 17.1267 28.6496 16.98C28.4963 16.8333 28.2963 16.76 28.0496 16.76H26.8496V16H27.9496C28.5296 16 28.9729 16.1433 29.2796 16.43C29.5929 16.71 29.7496 17.1333 29.7496 17.7V18.12C29.7496 18.4533 29.7263 18.7233 29.6796 18.93C29.6329 19.1367 29.5663 19.32 29.4796 19.48C29.3929 19.64 29.2496 19.8633 29.0496 20.15L27.5696 22.24H29.9496V23H26.6496V22.12L28.2496 19.84ZM35.48 21.3C35.48 21.8533 35.3267 22.2767 35.02 22.57C34.72 22.8567 34.3133 23 33.8 23H33.6C33.0867 23 32.6767 22.8567 32.37 22.57C32.07 22.2767 31.92 21.8533 31.92 21.3V17.7C31.92 17.14 32.07 16.7167 32.37 16.43C32.67 16.1433 33.08 16 33.6 16H33.8C34.32 16 34.73 16.1433 35.03 16.43C35.33 16.7167 35.48 17.14 35.48 17.7V21.3ZM34.63 17.51C34.63 17.3033 34.55 17.1267 34.39 16.98C34.2367 16.8267 34.04 16.75 33.8 16.75H33.6C33.36 16.75 33.16 16.8267 33 16.98C32.8467 17.1267 32.77 17.3033 32.77 17.51V20.22L34.63 17.51ZM32.77 21.49C32.77 21.6967 32.8467 21.8767 33 22.03C33.16 22.1767 33.36 22.25 33.6 22.25H33.8C34.04 22.25 34.2367 22.1767 34.39 22.03C34.55 21.8767 34.63 21.6967 34.63 21.49V18.79L32.77 21.49Z" fill="#281C16"/>
<path d="M94.5296 23V21.44H92.4696V20.58L93.5396 16H94.3496L93.3296 20.71H94.5296V18.43H95.3796V20.71H96.1296V21.44H95.3796V23H94.5296ZM101.48 21.3C101.48 21.8533 101.327 22.2767 101.02 22.57C100.72 22.8567 100.313 23 99.8 23H99.6C99.0867 23 98.6767 22.8567 98.37 22.57C98.07 22.2767 97.92 21.8533 97.92 21.3V17.7C97.92 17.14 98.07 16.7167 98.37 16.43C98.67 16.1433 99.08 16 99.6 16H99.8C100.32 16 100.73 16.1433 101.03 16.43C101.33 16.7167 101.48 17.14 101.48 17.7V21.3ZM100.63 17.51C100.63 17.3033 100.55 17.1267 100.39 16.98C100.237 16.8267 100.04 16.75 99.8 16.75H99.6C99.36 16.75 99.16 16.8267 99 16.98C98.8467 17.1267 98.77 17.3033 98.77 17.51V20.22L100.63 17.51ZM98.77 21.49C98.77 21.6967 98.8467 21.8767 99 22.03C99.16 22.1767 99.36 22.25 99.6 22.25H99.8C100.04 22.25 100.237 22.1767 100.39 22.03C100.55 21.8767 100.63 21.6967 100.63 21.49V18.79L98.77 21.49Z" fill="#281C16"/>
<path d="M63.7896 7.42C63.7896 7.97333 63.6563 8.37667 63.3896 8.63C63.1229 8.87667 62.6896 9 62.0896 9H60.8096V8.25H62.1796C62.4329 8.25 62.6196 8.19333 62.7396 8.08C62.8596 7.96 62.9196 7.77333 62.9196 7.52V6.49C62.9196 6.27 62.8529 6.09667 62.7196 5.97C62.5863 5.83667 62.4096 5.77 62.1896 5.77H61.1196V5.02H62.0896C62.2963 5.02 62.4696 4.95333 62.6096 4.82C62.7496 4.68667 62.8196 4.51 62.8196 4.29V3.47C62.8196 3.21667 62.7596 3.03333 62.6396 2.92C62.5263 2.80667 62.3429 2.75 62.0896 2.75H60.8096V2H61.9696C62.5363 2 62.9629 2.12667 63.2496 2.38C63.5429 2.62667 63.6896 3.02 63.6896 3.56V4.19C63.6896 4.70333 63.5063 5.09 63.1396 5.35C63.5729 5.59 63.7896 6 63.7896 6.58V7.42ZM69.48 7.3C69.48 7.85333 69.3267 8.27667 69.02 8.57C68.72 8.85667 68.3133 9 67.8 9H67.6C67.0867 9 66.6767 8.85667 66.37 8.57C66.07 8.27667 65.92 7.85333 65.92 7.3V3.7C65.92 3.14 66.07 2.71667 66.37 2.43C66.67 2.14333 67.08 2 67.6 2H67.8C68.32 2 68.73 2.14333 69.03 2.43C69.33 2.71667 69.48 3.14 69.48 3.7V7.3ZM68.63 3.51C68.63 3.30333 68.55 3.12667 68.39 2.98C68.2367 2.82667 68.04 2.75 67.8 2.75H67.6C67.36 2.75 67.16 2.82667 67 2.98C66.8467 3.12667 66.77 3.30333 66.77 3.51V6.22L68.63 3.51ZM66.77 7.49C66.77 7.69667 66.8467 7.87667 67 8.03C67.16 8.17667 67.36 8.25 67.6 8.25H67.8C68.04 8.25 68.2367 8.17667 68.39 8.03C68.55 7.87667 68.63 7.69667 68.63 7.49V4.79L66.77 7.49Z" fill="#281C16"/>
<line x1="65.5" y1="14" x2="65.5" y2="79" stroke="#E8E3E3"/>
<line x1="26" y1="52.5" x2="104" y2="52.5" stroke="#E8E3E3"/>
<line x1="37.0692" y1="80.2236" x2="92.2235" y2="25.0693" stroke="#E8E3E3"/>
<line x1="92.2235" y1="80.9307" x2="37.0691" y2="25.7764" stroke="#E8E3E3"/>
<g filter="url(#filter0_d)">
<circle cx="65" cy="53.0004" r="32.3617" fill="#2F211B"/>
</g>
<g filter="url(#filter1_d)">
<circle cx="65" cy="53.0002" r="27.383" fill="#281C16"/>
</g>
<defs>
<filter id="filter0_d" x="22.6383" y="15.6387" width="84.7234" height="84.7234" filterUnits="userSpaceOnUse" color-interpolation-filters="sRGB">
<feFlood flood-opacity="0" result="BackgroundImageFix"/>
<feColorMatrix in="SourceAlpha" type="matrix" values="0 0 0 0 0 0 0 0 0 0 0 0 0 0 0 0 0 0 127 0"/>
<feOffset dy="5"/>
<feGaussianBlur stdDeviation="5"/>
<feColorMatrix type="matrix" values="0 0 0 0 0 0 0 0 0 0 0 0 0 0 0 0 0 0 0.2 0"/>
<feBlend mode="normal" in2="BackgroundImageFix" result="effect1_dropShadow"/>
<feBlend mode="normal" in="SourceGraphic" in2="effect1_dropShadow" result="shape"/>
</filter>
<filter id="filter1_d" x="27.6171" y="20.6172" width="74.766" height="74.766" filterUnits="userSpaceOnUse" color-interpolation-filters="sRGB">
<feFlood flood-opacity="0" result="BackgroundImageFix"/>
<feColorMatrix in="SourceAlpha" type="matrix" values="0 0 0 0 0 0 0 0 0 0 0 0 0 0 0 0 0 0 127 0"/>
<feOffset dy="5"/>
<feGaussianBlur stdDeviation="5"/>
<feColorMatrix type="matrix" values="0 0 0 0 0 0 0 0 0 0 0 0 0 0 0 0 0 0 0.2 0"/>
<feBlend mode="normal" in2="BackgroundImageFix" result="effect1_dropShadow"/>
<feBlend mode="normal" in="SourceGraphic" in2="effect1_dropShadow" result="shape"/>
</filter>
</defs>
</svg>
